<svg width="1024" height="1024" viewBox="0 0 1024 1024" fill="none" xmlns="http://www.w3.org/2000/svg">
<g clip-path="url(#clip0_1_2)">
<path d="M646 262.417C646 355.763 565.577 431.835 466.5 431.835C367.599 431.835 287 355.763 287 262.417C287 168.906 367.599 93 466.5 93C565.577 93 646 168.906 646 262.417ZM521.229 196.477L446.086 310.419L410.362 266.902C405.963 261.421 402.091 259.926 396.988 259.926C389.068 259.926 382.909 266.072 382.909 273.545C382.909 277.365 384.493 281.02 387.133 284.342L431.304 335.499C435.879 341.312 440.807 343.637 446.79 343.637C452.773 343.637 457.877 340.981 461.572 335.499L544.282 212.589C546.394 209.101 548.683 205.28 548.683 201.626C548.683 193.82 541.467 188.837 533.724 188.837C529.149 188.837 524.573 191.495 521.229 196.477Z" fill="white"/>
</g>
<defs>
<clipPath id="clip0_1_2">
<rect width="359" height="339" fill="white" transform="translate(287 93)"/>
</clipPath>
</defs>
</svg>
