<svg width="1024" height="1024" viewBox="0 0 1024 1024" fill="none" xmlns="http://www.w3.org/2000/svg">
<g clip-path="url(#clip0_1_2)">
<path d="M606 366.434C606 441.055 541.706 501.868 462.5 501.868C383.434 501.868 319 441.055 319 366.434C319 291.68 383.434 231 462.5 231C541.706 231 606 291.68 606 366.434ZM506.253 313.721L446.18 404.807L417.621 370.019C414.104 365.637 411.009 364.442 406.929 364.442C400.598 364.442 395.674 369.355 395.674 375.33C395.674 378.383 396.94 381.305 399.05 383.961L434.363 424.856C438.02 429.503 441.96 431.362 446.743 431.362C451.526 431.362 455.606 429.238 458.561 424.856L524.682 326.6C526.371 323.812 528.2 320.758 528.2 317.837C528.2 311.596 522.432 307.613 516.242 307.613C512.584 307.613 508.926 309.738 506.253 313.721Z" fill="white" fill-opacity="0.85"/>
</g>
<defs>
<clipPath id="clip0_1_2">
<rect width="287" height="271" fill="white" transform="translate(319 231)"/>
</clipPath>
</defs>
</svg>
